<?xml version="1.0" encoding="utf-8"?>
<!-- Generator: Adobe Illustrator 26.2.1, SVG Export Plug-In . SVG Version: 6.00 Build 0)  -->
<svg version="1.1" id="Layer_1" xmlns="http://www.w3.org/2000/svg" xmlns:xlink="http://www.w3.org/1999/xlink" x="0px" y="0px"
	 viewBox="0 0 257.5 125.1" style="enable-background:new 0 0 257.5 125.1;" xml:space="preserve">
<style type="text/css">
	.st0{fill:#7AC943;stroke:#7AC943;stroke-width:4;stroke-miterlimit:10;}
	.st1{fill:#3FA9F5;stroke:#3FA9F5;stroke-width:4;stroke-miterlimit:10;}
	.st2{fill:#FF1D25;stroke:#FF1D25;stroke-width:4;stroke-miterlimit:10;}
	.st3{fill:#FF931E;stroke:#FF931E;stroke-width:4;stroke-miterlimit:10;}
	.st4{fill:#EC2E00;stroke:#FF1D25;stroke-width:4;stroke-miterlimit:10;}
	.st5{fill:#FF7BAC;stroke:#F27AAA;stroke-width:4;stroke-miterlimit:10;}
	.st6{fill:none;stroke:#000000;stroke-width:2;stroke-miterlimit:10;}
	.st7{font-family:'MyriadPro-Regular';}
	.st8{font-size:8px;}
</style>
<circle class="st0" cx="93.4" cy="50.6" r="4.3"/>
<circle class="st1" cx="163.3" cy="80.9" r="4.3"/>
<circle class="st1" cx="102.1" cy="66" r="4.3"/>
<circle class="st0" cx="110.8" cy="50.6" r="4.3"/>
<circle class="st0" cx="127.9" cy="50.6" r="4.3"/>
<circle class="st2" cx="119.5" cy="65.9" r="4.3"/>
<circle class="st3" cx="145.7" cy="50.6" r="4.3"/>
<circle class="st4" cx="136.6" cy="66" r="4.3"/>
<circle class="st4" cx="154.4" cy="66" r="4.3"/>
<circle class="st3" cx="163.3" cy="50.6" r="4.3"/>
<circle class="st3" cx="172" cy="66" r="4.3"/>
<circle class="st1" cx="145.7" cy="80.9" r="4.3"/>
<circle class="st5" cx="127.9" cy="81.1" r="4.3"/>
<circle class="st5" cx="110.8" cy="81.1" r="4.3"/>
<circle class="st5" cx="93.4" cy="80.9" r="4.3"/>
<path class="st6" d="M176.2,92L83,92.3c-5.1,0-10-2.2-10-7.3l-5.1-34.4c0-5.1,3.6-10.7,8.7-10.7l106.8-1c5.1,0,8.6,5,8.6,10.2
	l-5,35.3C187.1,89.5,181.4,92,176.2,92z"/>
<path class="st6" d="M239.2,113.4H20.4c-4.7,0-8.5-3.8-8.5-8.5V27.1c0-4.7,3.8-8.5,8.5-8.5h218.8c4.7,0,8.5,3.8,8.5,8.5v77.8
	C247.7,109.6,243.9,113.4,239.2,113.4z"/>
<text transform="matrix(1 0 0 1 90.966 53.4647)" class="st7 st8">1</text>
<text transform="matrix(1 0 0 1 108.9215 53.4647)" class="st7 st8">2</text>
<text transform="matrix(1 0 0 1 125.7337 53.4647)" class="st7 st8">3</text>
<circle class="st6" cx="34.6" cy="66" r="10.8"/>
<circle class="st6" cx="225.6" cy="66" r="10.8"/>
<text transform="matrix(1 0 0 1 89.3021 84.1111)" class="st7 st8">15</text>
<text transform="matrix(1 0 0 1 107.2575 84.1111)" class="st7 st8">14</text>
<text transform="matrix(1 0 0 1 124.0697 84.1111)" class="st7 st8">13</text>
<text transform="matrix(1 0 0 1 140.9471 84.1108)" class="st7 st8">12</text>
<text transform="matrix(1 0 0 1 158.9025 84.1109)" class="st7 st8">11</text>
<text transform="matrix(1 0 0 1 143.3461 53.4645)" class="st7 st8">4</text>
<text transform="matrix(1 0 0 1 161.6027 53.4647)" class="st7 st8">5</text>
<text transform="matrix(1 0 0 1 97.754 68.6812)" class="st7 st8">10</text>
<text transform="matrix(1 0 0 1 117.5969 68.6812)" class="st7 st8">9</text>
<text transform="matrix(1 0 0 1 134.4091 68.6812)" class="st7 st8">8</text>
<text transform="matrix(1 0 0 1 153.0215 68.681)" class="st7 st8">7</text>
<text transform="matrix(1 0 0 1 170.2781 68.6813)" class="st7 st8">6</text>
</svg>
