<?xml version="1.0" encoding="utf-8"?>
<!-- Generator: Adobe Illustrator 26.2.1, SVG Export Plug-In . SVG Version: 6.00 Build 0)  -->
<svg version="1.1" id="Layer_1" xmlns:svg="http://www.w3.org/2000/svg"
	 xmlns="http://www.w3.org/2000/svg" xmlns:xlink="http://www.w3.org/1999/xlink" x="0px" y="0px" viewBox="0 0 550.4 455.2"
	 style="enable-background:new 0 0 550.4 455.2;" xml:space="preserve">
<style type="text/css">
	.st0{fill:#006837;}
	.st1{fill:#FF222C;stroke:#000000;stroke-width:0.5;stroke-miterlimit:10;}
	.st2{fill:#F7BD13;}
	.st3{fill:#8D8C8C;}
	.st4{fill:#8C8663;}
	.st5{fill:#B8AF82;}
	.st6{fill:#80795B;}
	.st7{fill:#5E5B43;}
	.st8{fill:#9A916C;}
	.st9{fill:#FF9900;stroke:#000000;stroke-width:0.25;stroke-miterlimit:10;}
	.st10{fill:#0000FF;stroke:#000000;stroke-width:0.5;stroke-miterlimit:10;}
	.st11{fill:#FFFFFF;stroke:#000000;stroke-width:0.5;stroke-miterlimit:10;}
	.st12{fill:none;stroke:#8C8C8C;stroke-width:2.91;stroke-linecap:round;stroke-linejoin:round;}
	.st13{fill:none;}
	.st14{fill:none;stroke:#8C8C8C;stroke-width:2.91;stroke-linecap:round;}
	.st15{fill:none;stroke:#8C8C8C;stroke-width:2.91;}
	.st16{fill:#7BC6B8;}
	.st17{fill:#8A3D06;}
	.st18{fill-opacity:0.4;}
	.st19{fill:#FFFFFF;}
	.st20{fill:#FFFF33;}
	.st21{stroke:#000000;stroke-width:0.5;stroke-miterlimit:10;}
</style>
<path class="st0" d="M532.3,444.9H15.1c-4.7,0-8.5-3.8-8.5-8.5V16.6c0-4.7,3.8-8.5,8.5-8.5h517.2c4.7,0,8.5,3.8,8.5,8.5v419.8
	C540.8,441.1,537,444.9,532.3,444.9z"/>
<g id="icon_00000106104823913636982860000007425309475160056712_">
	<path class="st1" d="M306.1,110.4v19.4c1.2,0,2.2,1,2.2,2.2c0,1.2-1,2.2-2.2,2.2v19.4h36v-43.2H306.1z"/>
	<g transform="matrix(1, 0, 0, 1, 7.2, 10.8)">
		<g>
			<rect x="306.1" y="110.4" class="st2" width="21.6" height="21.6"/>
		</g>
	</g>
</g>
<g id="icon_00000129912677488766545520000016777156419508974758_">
	<path class="st1" d="M349.3,110.4v19.4c1.2,0,2.2,1,2.2,2.2c0,1.2-1,2.2-2.2,2.2v19.4h36v-43.2H349.3z"/>
	<g transform="matrix(1, 0, 0, 1, 7.2, 10.8)">
		<g>
			<rect x="349.3" y="110.4" class="st2" width="21.6" height="21.6"/>
		</g>
	</g>
</g>
<path class="st1" d="M392.5,110.4v19.4c1.2,0,2.2,1,2.2,2.2c0,1.2-1,2.2-2.2,2.2v19.4h36v-43.2H392.5z"/>
<g id="icon_00000102533042401452280220000013504732655322335915_">
	<path class="st1" d="M435.7,110.4v19.4c1.2,0,2.2,1,2.2,2.2c0,1.2-1,2.2-2.2,2.2v19.4h36v-43.2H435.7z"/>
	<g transform="matrix(1, 0, 0, 1, 7.2, 10.8)">
		<g>
			<rect x="435.7" y="110.4" class="st2" width="21.6" height="21.6"/>
		</g>
	</g>
</g>
<g id="icon_00000150079233872321281380000000893246128733868712_">
	<path class="st1" d="M478.9,110.4v19.4c1.2,0,2.2,1,2.2,2.2c0,1.2-1,2.2-2.2,2.2v19.4h36v-43.2H478.9z"/>
	<g transform="matrix(1, 0, 0, 1, 7.2, 10.8)">
		<g>
			<rect x="478.9" y="110.4" class="st2" width="21.6" height="21.6"/>
		</g>
	</g>
</g>
<g transform="matrix(1, 0, 0, 1, 16.8505, 38.4516)">
	<g>
		
			<rect id="connector0pin_00000083071929388894375640000005213610526970969509_" x="478.9" y="110.4" class="st3" width="2.3" height="2.3"/>
		<rect x="479.4" y="111" class="st4" width="1.2" height="1.2"/>
		<polygon class="st5" points="478.9,112.7 479.4,112.2 479.4,110.9 478.9,110.4 		"/>
		<polygon class="st6" points="480.6,111 479.5,111 478.9,110.4 481.2,110.4 		"/>
		<polygon class="st7" points="480.6,112.2 480.6,111 481.2,110.4 481.2,112.7 		"/>
		<polygon class="st8" points="478.9,112.7 479.4,112.2 480.6,112.2 481.2,112.7 		"/>
	</g>
</g>
<g transform="matrix(1, 0, 0, 1, 16.8505, 38.4516)">
	<g>
		
			<rect id="connector0pin_00000078015648709582580880000010710611429776441533_" x="435.7" y="110.4" class="st3" width="2.3" height="2.3"/>
		<rect x="436.2" y="111" class="st4" width="1.2" height="1.2"/>
		<polygon class="st5" points="435.7,112.7 436.2,112.2 436.2,110.9 435.7,110.4 		"/>
		<polygon class="st6" points="437.4,111 436.3,111 435.7,110.4 438,110.4 		"/>
		<polygon class="st7" points="437.4,112.2 437.4,111 438,110.4 438,112.7 		"/>
		<polygon class="st8" points="435.7,112.7 436.2,112.2 437.4,112.2 438,112.7 		"/>
	</g>
</g>
<g transform="matrix(1, 0, 0, 1, 7.2, 10.8)">
	<g>
		<rect x="392.5" y="110.4" class="st2" width="21.6" height="21.6"/>
	</g>
</g>
<g transform="matrix(1, 0, 0, 1, 16.8505, 38.4516)">
	<g>
		
			<rect id="connector0pin_00000049904148054333428550000010612860216924147601_" x="392.5" y="110.4" class="st3" width="2.3" height="2.3"/>
		<rect x="393" y="111" class="st4" width="1.2" height="1.2"/>
		<polygon class="st5" points="392.5,112.7 393,112.2 393,110.9 392.5,110.4 		"/>
		<polygon class="st6" points="394.2,111 393.1,111 392.5,110.4 394.8,110.4 		"/>
		<polygon class="st7" points="394.2,112.2 394.2,111 394.8,110.4 394.8,112.7 		"/>
		<polygon class="st8" points="392.5,112.7 393,112.2 394.2,112.2 394.8,112.7 		"/>
	</g>
</g>
<g transform="matrix(1, 0, 0, 1, 16.8505, 38.4516)">
	<g>
		
			<rect id="connector0pin_00000135659868912538759020000011940066900145751208_" x="349.3" y="110.4" class="st3" width="2.3" height="2.3"/>
		<rect x="349.8" y="111" class="st4" width="1.2" height="1.2"/>
		<polygon class="st5" points="349.3,112.7 349.8,112.2 349.8,110.9 349.3,110.4 		"/>
		<polygon class="st6" points="351,111 349.9,111 349.3,110.4 351.6,110.4 		"/>
		<polygon class="st7" points="351,112.2 351,111 351.6,110.4 351.6,112.7 		"/>
		<polygon class="st8" points="349.3,112.7 349.8,112.2 351,112.2 351.6,112.7 		"/>
	</g>
</g>
<g transform="matrix(1, 0, 0, 1, 16.8505, 38.4516)">
	<g>
		
			<rect id="connector0pin_00000071536887260939846780000003474049786846579599_" x="306.1" y="110.4" class="st3" width="2.3" height="2.3"/>
		<rect x="306.6" y="111" class="st4" width="1.2" height="1.2"/>
		<polygon class="st5" points="306.1,112.7 306.6,112.2 306.6,110.9 306.1,110.4 		"/>
		<polygon class="st6" points="307.8,111 306.7,111 306.1,110.4 308.4,110.4 		"/>
		<polygon class="st7" points="307.8,112.2 307.8,111 308.4,110.4 308.4,112.7 		"/>
		<polygon class="st8" points="306.1,112.7 306.6,112.2 307.8,112.2 308.4,112.7 		"/>
	</g>
</g>
<g>
	<g id="breadboard_00000019659192770052192650000010627677116494136488_">
		<path class="st9" d="M335.2,283.2v19.4c1.2,0,2.2,1,2.2,2.2c0,1.2-1,2.2-2.2,2.2v19.4h36v-43.2H335.2z"/>
		<g transform="matrix(1, 0, 0, 1, 7.2, 10.8)">
			<g>
				<rect x="335.2" y="283.2" class="st2" width="21.6" height="21.6"/>
			</g>
		</g>
		<g transform="matrix(1, 0, 0, 1, 16.8505, 38.4516)">
			<g>
				
					<rect id="connector0pin_00000025404612489012529480000006029836009655273630_" x="335.2" y="283.2" class="st9" width="2.3" height="2.3"/>
				<rect x="335.7" y="283.8" class="st9" width="1.2" height="1.2"/>
				<polygon class="st9" points="335.2,285.5 335.7,285 335.7,283.7 335.2,283.2 				"/>
				<polygon class="st9" points="336.9,283.8 335.7,283.8 335.2,283.2 337.5,283.2 				"/>
				<polygon class="st9" points="336.9,285 336.9,283.8 337.5,283.2 337.5,285.5 				"/>
				<polygon class="st9" points="335.2,285.5 335.7,285 336.9,285 337.5,285.5 				"/>
			</g>
		</g>
	</g>
</g>
<g transform="translate(201.6,259.2)">
	<g id="breadboard_00000009575253435153978650000005726955276162249643_">
		<path class="st10" d="M12.8,24v19.4c1.2,0,2.2,1,2.2,2.2c0,1.2-1,2.2-2.2,2.2v19.4h36V24H12.8z"/>
		<g transform="matrix(1, 0, 0, 1, 7.2, 10.8)">
			<g>
				<rect x="12.8" y="24" class="st2" width="21.6" height="21.6"/>
			</g>
		</g>
		<g transform="matrix(1, 0, 0, 1, 16.8505, 38.4516)">
			<g>
				
					<rect id="connector0pin_00000080891953476810984400000015846715355204428456_" x="12.8" y="24" class="st10" width="2.3" height="2.3"/>
				<rect x="13.3" y="24.6" class="st10" width="1.2" height="1.2"/>
				<polygon class="st10" points="12.8,26.3 13.3,25.8 13.3,24.5 12.8,24 				"/>
				<polygon class="st10" points="14.5,24.6 13.3,24.6 12.8,24 15.1,24 				"/>
				<polygon class="st10" points="14.5,25.8 14.5,24.6 15.1,24 15.1,26.3 				"/>
				<polygon class="st10" points="12.8,26.3 13.3,25.8 14.5,25.8 15.1,26.3 				"/>
			</g>
		</g>
	</g>
</g>
<g id="breadboard_00000180359546120141500550000000990727011224136852_">
	<path class="st10" d="M214.4,384v19.4c1.2,0,2.2,1,2.2,2.2c0,1.2-1,2.2-2.2,2.2v19.4h36V384H214.4z"/>
	<g transform="matrix(1, 0, 0, 1, 7.2, 10.8)">
		<g>
			<rect x="214.4" y="384" class="st2" width="21.6" height="21.6"/>
		</g>
	</g>
	<g transform="matrix(1, 0, 0, 1, 16.8505, 38.4516)">
		<g>
			
				<rect id="connector0pin_00000130628331629970097380000009753618700220909446_" x="214.4" y="384" class="st10" width="2.3" height="2.3"/>
			<rect x="214.9" y="384.6" class="st10" width="1.2" height="1.2"/>
			<polygon class="st10" points="214.4,386.3 214.9,385.8 214.9,384.5 214.4,384 			"/>
			<polygon class="st10" points="216.1,384.6 214.9,384.6 214.4,384 216.7,384 			"/>
			<polygon class="st10" points="216.1,385.8 216.1,384.6 216.7,384 216.7,386.3 			"/>
			<polygon class="st10" points="214.4,386.3 214.9,385.8 216.1,385.8 216.7,386.3 			"/>
		</g>
	</g>
</g>
<g>
	<g transform="translate(201.6,208.8)">
		<g id="breadboard_00000131364219800434600020000001517388357086260899_">
			<g id="icon_00000102508198670265420940000006265750823581653439_">
				<path class="st10" d="M12.8,24v19.4c1.2,0,2.2,1,2.2,2.2c0,1.2-1,2.2-2.2,2.2v19.4h36V24H12.8z"/>
				<g transform="matrix(1, 0, 0, 1, 7.2, 10.8)">
					<g>
						<rect x="12.8" y="24" class="st2" width="21.6" height="21.6"/>
					</g>
				</g>
			</g>
			<g transform="matrix(1, 0, 0, 1, 16.8505, 38.4516)">
				<g>
					
						<rect id="connector0pin_00000176742322905297015200000003107974999089689230_" x="12.8" y="24" class="st1" width="2.3" height="2.3"/>
					<rect x="13.3" y="24.6" class="st1" width="1.2" height="1.2"/>
					<polygon class="st1" points="12.8,26.3 13.3,25.8 13.3,24.5 12.8,24 					"/>
					<polygon class="st1" points="14.5,24.6 13.3,24.6 12.8,24 15.1,24 					"/>
					<polygon class="st1" points="14.5,25.8 14.5,24.6 15.1,24 15.1,26.3 					"/>
					<polygon class="st1" points="12.8,26.3 13.3,25.8 14.5,25.8 15.1,26.3 					"/>
				</g>
			</g>
		</g>
	</g>
</g>
<g id="breadboard_00000100379770094655382970000001965446959671650212_">
	<g id="icon_00000042736067957767675770000006648382817621444759_">
		<path class="st10" d="M214.4,333.6v19.4c1.2,0,2.2,1,2.2,2.2c0,1.2-1,2.2-2.2,2.2v19.4h36v-43.2H214.4z"/>
		<g transform="matrix(1, 0, 0, 1, 7.2, 10.8)">
			<g>
				<rect x="214.4" y="333.6" class="st2" width="21.6" height="21.6"/>
			</g>
		</g>
	</g>
	<g transform="matrix(1, 0, 0, 1, 16.8505, 38.4516)">
		<g>
			
				<rect id="connector0pin_00000016072308434080427910000016292923586286236332_" x="214.4" y="333.6" class="st3" width="2.3" height="2.3"/>
			<rect x="214.9" y="334.2" class="st4" width="1.2" height="1.2"/>
			<polygon class="st5" points="214.4,335.9 214.9,335.4 214.9,334.1 214.4,333.6 			"/>
			<polygon class="st6" points="216.1,334.2 214.9,334.2 214.4,333.6 216.7,333.6 			"/>
			<polygon class="st7" points="216.1,335.4 216.1,334.2 216.7,333.6 216.7,335.9 			"/>
			<polygon class="st8" points="214.4,335.9 214.9,335.4 216.1,335.4 216.7,335.9 			"/>
		</g>
	</g>
</g>
<g id="icon_00000076590744225980003860000004223640916513311669_">
	<path class="st11" d="M205.6,24v19.4c1.2,0,2.2,1,2.2,2.2c0,1.2-1,2.2-2.2,2.2v19.4h36V24H205.6z"/>
	<g transform="matrix(1, 0, 0, 1, 7.2, 10.8)">
		<g>
			<rect x="205.6" y="24" class="st2" width="21.6" height="21.6"/>
		</g>
	</g>
</g>
<g transform="matrix(1, 0, 0, 1, 16.8505, 38.4516)">
	<g>
		
			<rect id="connector0pin_00000099622868052200236220000012252291243309415863_" x="205.6" y="24" class="st3" width="2.3" height="2.3"/>
		<rect x="206.1" y="24.6" class="st4" width="1.2" height="1.2"/>
		<polygon class="st5" points="205.6,26.3 206.1,25.8 206.1,24.5 205.6,24 		"/>
		<polygon class="st6" points="207.3,24.6 206.1,24.6 205.6,24 207.9,24 		"/>
		<polygon class="st7" points="207.3,25.8 207.3,24.6 207.9,24 207.9,26.3 		"/>
		<polygon class="st8" points="205.6,26.3 206.1,25.8 207.3,25.8 207.9,26.3 		"/>
	</g>
</g>
<g id="icon_00000103944638130566604050000014006347399239729032_">
	<path class="st11" d="M162.4,24v19.4c1.2,0,2.2,1,2.2,2.2c0,1.2-1,2.2-2.2,2.2v19.4h36V24H162.4z"/>
	<g transform="matrix(1, 0, 0, 1, 7.2, 10.8)">
		<g>
			<rect x="162.4" y="24" class="st2" width="21.6" height="21.6"/>
		</g>
	</g>
</g>
<g transform="matrix(1, 0, 0, 1, 16.8505, 38.4516)">
	<g>
		
			<rect id="connector0pin_00000163072186636724666300000006746822352760997553_" x="162.4" y="24" class="st3" width="2.3" height="2.3"/>
		<rect x="162.9" y="24.6" class="st4" width="1.2" height="1.2"/>
		<polygon class="st5" points="162.4,26.3 162.9,25.8 162.9,24.5 162.4,24 		"/>
		<polygon class="st6" points="164.1,24.6 162.9,24.6 162.4,24 164.7,24 		"/>
		<polygon class="st7" points="164.1,25.8 164.1,24.6 164.7,24 164.7,26.3 		"/>
		<polygon class="st8" points="162.4,26.3 162.9,25.8 164.1,25.8 164.7,26.3 		"/>
	</g>
</g>
<g id="breadboard_00000176735882822622471330000002140813045518930322_">
	<path class="st9" d="M335.2,232.8v19.4c1.2,0,2.2,1,2.2,2.2c0,1.2-1,2.2-2.2,2.2V276h36v-43.2H335.2z"/>
	<g transform="matrix(1, 0, 0, 1, 7.2, 10.8)">
		<g>
			<rect x="335.2" y="232.8" class="st2" width="21.6" height="21.6"/>
		</g>
	</g>
	<g transform="matrix(1, 0, 0, 1, 16.8505, 38.4516)">
		<g>
			
				<rect id="connector0pin_00000105393470269085063230000012204248766865651646_" x="335.2" y="232.8" class="st3" width="2.3" height="2.3"/>
			<rect x="335.7" y="233.4" class="st4" width="1.2" height="1.2"/>
			<polygon class="st5" points="335.2,235.1 335.7,234.6 335.7,233.3 335.2,232.8 			"/>
			<polygon class="st6" points="336.9,233.4 335.7,233.4 335.2,232.8 337.5,232.8 			"/>
			<polygon class="st7" points="336.9,234.6 336.9,233.4 337.5,232.8 337.5,235.1 			"/>
			<polygon class="st8" points="335.2,235.1 335.7,234.6 336.9,234.6 337.5,235.1 			"/>
		</g>
	</g>
</g>
<path class="st11" d="M119.2,24v19.4c1.2,0,2.2,1,2.2,2.2c0,1.2-1,2.2-2.2,2.2v19.4h36V24H119.2z"/>
<g transform="matrix(1, 0, 0, 1, 7.2, 10.8)">
	<g>
		<rect x="119.2" y="24" class="st2" width="21.6" height="21.6"/>
	</g>
</g>
<g transform="matrix(1, 0, 0, 1, 16.8505, 38.4516)">
	<g>
		
			<rect id="connector0pin_00000061451330219875960230000014494831248050717098_" x="119.2" y="24" class="st3" width="2.3" height="2.3"/>
		<rect x="119.7" y="24.6" class="st4" width="1.2" height="1.2"/>
		<polygon class="st5" points="119.2,26.3 119.7,25.8 119.7,24.5 119.2,24 		"/>
		<polygon class="st6" points="120.9,24.6 119.7,24.6 119.2,24 121.5,24 		"/>
		<polygon class="st7" points="120.9,25.8 120.9,24.6 121.5,24 121.5,26.3 		"/>
		<polygon class="st8" points="119.2,26.3 119.7,25.8 120.9,25.8 121.5,26.3 		"/>
	</g>
</g>
<g id="icon_00000074422269853905613140000007435528030693094789_">
	<path class="st11" d="M76,24v19.4c1.2,0,2.2,1,2.2,2.2c0,1.2-1,2.2-2.2,2.2v19.4h36V24H76z"/>
	<g transform="matrix(1, 0, 0, 1, 7.2, 10.8)">
		<g>
			<rect x="76" y="24" class="st2" width="21.6" height="21.6"/>
		</g>
	</g>
</g>
<g transform="matrix(1, 0, 0, 1, 16.8505, 38.4516)">
	<g>
		
			<rect id="connector0pin_00000042725894874992489700000013504635476033660579_" x="76" y="24" class="st3" width="2.3" height="2.3"/>
		<rect x="76.5" y="24.6" class="st4" width="1.2" height="1.2"/>
		<polygon class="st5" points="76,26.3 76.5,25.8 76.5,24.5 76,24 		"/>
		<polygon class="st6" points="77.7,24.6 76.5,24.6 76,24 78.3,24 		"/>
		<polygon class="st7" points="77.7,25.8 77.7,24.6 78.3,24 78.3,26.3 		"/>
		<polygon class="st8" points="76,26.3 76.5,25.8 77.7,25.8 78.3,26.3 		"/>
	</g>
</g>
<g id="icon_00000054970683186233449500000015847837090367181479_">
	<path class="st11" d="M32.8,24v19.4c1.2,0,2.2,1,2.2,2.2c0,1.2-1,2.2-2.2,2.2v19.4h36V24H32.8z"/>
	<g transform="matrix(1, 0, 0, 1, 7.2, 10.8)">
		<g>
			<rect x="32.8" y="24" class="st2" width="21.6" height="21.6"/>
		</g>
	</g>
</g>
<g transform="matrix(1, 0, 0, 1, 16.8505, 38.4516)">
	<g>
		
			<rect id="connector0pin_00000124122240717768661280000000218608916785520785_" x="32.8" y="24" class="st3" width="2.3" height="2.3"/>
		<rect x="33.3" y="24.6" class="st4" width="1.2" height="1.2"/>
		<polygon class="st5" points="32.8,26.3 33.3,25.8 33.3,24.5 32.8,24 		"/>
		<polygon class="st6" points="34.5,24.6 33.3,24.6 32.8,24 35.1,24 		"/>
		<polygon class="st7" points="34.5,25.8 34.5,24.6 35.1,24 35.1,26.3 		"/>
		<polygon class="st8" points="32.8,26.3 33.3,25.8 34.5,25.8 35.1,26.3 		"/>
	</g>
</g>
<g transform="matrix(1, 0, 0, 1, 16.8505, 38.4516)">
	<g>
		
			<rect id="connector0pin_00000133488873186777172340000014641496001852362683_" x="478.6" y="1.3" class="st3" width="2.3" height="2.3"/>
		<rect x="479.1" y="1.8" class="st4" width="1.2" height="1.2"/>
		<polygon class="st5" points="478.6,3.6 479.1,3 479.1,1.8 478.6,1.3 		"/>
		<polygon class="st6" points="480.3,1.8 479.1,1.8 478.6,1.3 480.9,1.3 		"/>
		<polygon class="st7" points="480.3,3 480.3,1.8 480.9,1.3 480.9,3.6 		"/>
		<polygon class="st8" points="478.6,3.6 479.1,3 480.3,3 480.9,3.6 		"/>
	</g>
</g>
<path class="st12" d="M373.6,405.7h-0.8"/>
<g>
	<g transform="translate(354.945,374.561)">
		<g id="breadboard_00000160155380617637751560000013606509993634713234_">
			
				<rect id="connector0pin_00000051367130126564768200000011825873962338193852_" x="29.1" y="29.1" class="st13" width="1.4" height="1.4"/>
			
				<rect id="connector1pin_00000165231069231140409990000010911026268579547780_" x="82.5" y="29.1" class="st13" width="1.4" height="1.4"/>
			
				<line id="connector0leg_00000060024858292676664890000005113756966000872866_" class="st14" x1="29.1" y1="31.2" x2="29.9" y2="31.2"/>
			
				<line id="connector1leg_00000008843446010761393620000009499473637048251526_" class="st14" x1="86.6" y1="31.2" x2="85.8" y2="31.2"/>
			<path class="st15" d="M29.1,31.2h56.6"/>
			<path id="body_00000019641106456516371270000017278641622162391456_" class="st16" d="M47.5,24.9c-0.7-0.3-2-0.6-2.7-0.6h-4
				c-0.8,0-1.4,0.6-1.4,1.4v10.7c0,0.8,0.6,1.4,1.4,1.4l4,0c0.8,0,2-0.3,2.7-0.6l0.1-0.1c0.7-0.3,2-0.6,2.7-0.6h14.4
				c0.8,0,2,0.3,2.7,0.6l0.1,0.1c0.7,0.3,2,0.6,2.8,0.6h4c0.8,0,1.4-0.6,1.4-1.4l0-10.7c0-0.8-0.6-1.4-1.4-1.4h-4
				c-0.8,0-2,0.3-2.8,0.6L67.5,25c-0.7,0.3-2,0.6-2.7,0.6H50.4c-0.8,0-2-0.3-2.7-0.6L47.5,24.9z"/>
			
				<rect id="gold_band_00000145034055241375240590000010690551639484205231_" x="71" y="24.3" class="st17" width="1.4" height="13.6"/>
			<rect id="band_3_00000037670126110696197360000016630710180648006569_" x="56.5" y="25.5" width="3.7" height="11.1"/>
			<rect id="band_2_nd_00000023261315307387916580000007129640781251604668_" x="50.5" y="25.5" width="3.7" height="11.1"/>
			<path id="band_rd_multiplier_00000181784578774779397650000008389020099956218797_" class="st17" d="M62.2,25.5c0,0,2.4,0,2.8,0
				s0.9-0.1,0.9-0.1v11.3c0,0-0.4-0.1-0.9-0.1c-0.5,0-2.8,0-2.8,0V25.5z"/>
			<path id="band_1_st_00000017482846997905158470000002550824379121707707_" class="st17" d="M48.3,25.2c-0.2-0.1-0.4-0.1-0.6-0.2
				l-0.1-0.1c-0.7-0.3-2-0.6-2.7-0.6h-0.2v13.6h0.2c0.8,0,2-0.3,2.7-0.6l0.1-0.1c0.2-0.1,0.4-0.2,0.6-0.2L48.3,25.2L48.3,25.2z"/>
			<path id="Shadow_00000083053905197184366160000006553439968907670974_" class="st18" d="M74.4,32.1L74.4,32.1
				c0,0.8-0.3,1.4-0.6,1.4H70c-0.8,0-2-0.1-2.7-0.2l-0.1,0c-0.7-0.1-1.9-0.2-2.7-0.2H50.6c-0.8,0-2,0.1-2.7,0.2l-0.1,0
				c-0.7,0.1-1.9,0.2-2.7,0.2l-0.6,0h-2h-0.6c-0.8,0-1.4,0.6-1.4,1.3v0.5v0.3v0.3c0,0.7,0.6,1.3,1.4,1.3h3.2c0.8,0,2-0.2,2.7-0.5
				l0.1-0.1c0.7-0.3,1.9-0.5,2.7-0.5h13.9c0.8,0,2,0.2,2.7,0.5l0.1,0.1c0.7,0.3,1.9,0.5,2.7,0.5h4.4c0.8,0,1.4-0.6,1.4-1.3l0-1.1
				v-1.9v-3.7C75.3,29.4,74.4,30,74.4,32.1z"/>
			<rect id="ShadowExtra_00000087381907804716896100000003382669639102685323_" x="71" y="30.9" width="1.4" height="6.3"/>
			<path id="ReflexRight_00000154415773170480967510000016326915478080774542_" class="st19" d="M66.5,26.1c0.5,0,1-0.2,1.3-0.3
				c0.4-0.2,1.2-0.3,1.9-0.3h2.9c0.4,0,0.4,0.5,0.4,0.7c0,0.3,0,0.8-0.4,0.8h-6.1c-0.2,0-0.5-0.2-0.5-0.4
				C66.1,26.3,66.3,26.1,66.5,26.1z"/>
			<circle id="ReflexLeft_00000078723891923691505110000013518017947176620476_" class="st19" cx="41" cy="26.2" r="0.9"/>
			
				<rect id="Reflex_gold_00000159435056915811368650000016114826182316749711_" x="71" y="24.7" class="st20" width="1.4" height="3.2"/>
			
				<rect id="Reflex_extra_00000138539321223350915270000009268704612364345519_" x="71" y="25.5" class="st19" width="1.4" height="1.5"/>
		</g>
	</g>
</g>
<path class="st12" d="M374.9,355.3h-0.8"/>
<g>
	<g transform="translate(354.945,324.161)">
		<g id="breadboard_00000020379346125115406960000008085143656240327573_">
			
				<rect id="connector0pin_00000075151884302256722060000009532429390129579159_" x="29.1" y="29.1" class="st13" width="1.4" height="1.4"/>
			
				<rect id="connector1pin_00000127750878112134509440000014488574302617017241_" x="82.5" y="29.1" class="st13" width="1.4" height="1.4"/>
			
				<line id="connector0leg_00000043434912087777181310000004029219601889694143_" class="st14" x1="29.1" y1="31.2" x2="29.9" y2="31.2"/>
			
				<line id="connector1leg_00000057112419139944746490000000001580772341237384_" class="st14" x1="86.6" y1="31.2" x2="85.8" y2="31.2"/>
			<path class="st15" d="M29.1,31.2h56.6"/>
			<path id="body_00000048469169344747831580000016968390797123903667_" class="st16" d="M47.5,24.9c-0.7-0.3-2-0.6-2.7-0.6h-4
				c-0.8,0-1.4,0.6-1.4,1.4v10.7c0,0.8,0.6,1.4,1.4,1.4l4,0c0.8,0,2-0.3,2.7-0.6l0.1-0.1c0.7-0.3,2-0.6,2.7-0.6h14.4
				c0.8,0,2,0.3,2.7,0.6l0.1,0.1c0.7,0.3,2,0.6,2.8,0.6h4c0.8,0,1.4-0.6,1.4-1.4l0-10.7c0-0.8-0.6-1.4-1.4-1.4h-4
				c-0.8,0-2,0.3-2.8,0.6L67.5,25c-0.7,0.3-2,0.6-2.7,0.6H50.4c-0.8,0-2-0.3-2.7-0.6L47.5,24.9z"/>
			
				<rect id="gold_band_00000076580845292941689410000015935759325216581554_" x="71" y="24.3" class="st17" width="1.4" height="13.6"/>
			<rect id="band_3_00000128468258934239437250000000320092558467844489_" x="56.5" y="25.5" width="3.7" height="11.1"/>
			<rect id="band_2_nd_00000119824933151087959880000003566490713695817136_" x="50.5" y="25.5" width="3.7" height="11.1"/>
			<path id="band_rd_multiplier_00000080177004191290352350000004820388957439278014_" class="st17" d="M62.2,25.5c0,0,2.4,0,2.8,0
				s0.9-0.1,0.9-0.1v11.3c0,0-0.4-0.1-0.9-0.1c-0.5,0-2.8,0-2.8,0V25.5z"/>
			<path id="band_1_st_00000096043016562895649910000001537884274561944234_" class="st17" d="M48.3,25.2c-0.2-0.1-0.4-0.1-0.6-0.2
				l-0.1-0.1c-0.7-0.3-2-0.6-2.7-0.6h-0.2v13.6h0.2c0.8,0,2-0.3,2.7-0.6l0.1-0.1c0.2-0.1,0.4-0.2,0.6-0.2L48.3,25.2L48.3,25.2z"/>
			<path id="Shadow_00000120545976636958614220000017125914314620654512_" class="st18" d="M74.4,32.1L74.4,32.1
				c0,0.8-0.3,1.4-0.6,1.4H70c-0.8,0-2-0.1-2.7-0.2l-0.1,0c-0.7-0.1-1.9-0.2-2.7-0.2H50.6c-0.8,0-2,0.1-2.7,0.2l-0.1,0
				c-0.7,0.1-1.9,0.2-2.7,0.2l-0.6,0h-2h-0.6c-0.8,0-1.4,0.6-1.4,1.3v0.5v0.3v0.3c0,0.7,0.6,1.3,1.4,1.3h3.2c0.8,0,2-0.2,2.7-0.5
				l0.1-0.1c0.7-0.3,1.9-0.5,2.7-0.5h13.9c0.8,0,2,0.2,2.7,0.5l0.1,0.1c0.7,0.3,1.9,0.5,2.7,0.5h4.4c0.8,0,1.4-0.6,1.4-1.3l0-1.1
				v-1.9v-3.7C75.3,29.4,74.4,30,74.4,32.1z"/>
			<rect id="ShadowExtra_00000135657565490732715850000016849916661127140250_" x="71" y="30.9" width="1.4" height="6.3"/>
			<path id="ReflexRight_00000056420675508417948350000009244246393526716554_" class="st19" d="M66.5,26.1c0.5,0,1-0.2,1.3-0.3
				c0.4-0.2,1.2-0.3,1.9-0.3h2.9c0.4,0,0.4,0.5,0.4,0.7c0,0.3,0,0.8-0.4,0.8h-6.1c-0.2,0-0.5-0.2-0.5-0.4
				C66.1,26.3,66.3,26.1,66.5,26.1z"/>
			<circle id="ReflexLeft_00000029025270199017241220000013369155232871877534_" class="st19" cx="41" cy="26.2" r="0.9"/>
			
				<rect id="Reflex_gold_00000054254310078318294740000006529843861285495712_" x="71" y="24.7" class="st20" width="1.4" height="3.2"/>
			
				<rect id="Reflex_extra_00000061437731102816042380000002405467967738816649_" x="71" y="25.5" class="st19" width="1.4" height="1.5"/>
		</g>
	</g>
</g>
<g>
	<g transform="translate(354.945,223.361)">
		<g id="breadboard_00000008834943529246482190000000956204690364711088_">
			
				<rect id="connector0pin_00000178184017990871332350000010522987855170959490_" x="29.1" y="29.1" class="st13" width="1.4" height="1.4"/>
			
				<rect id="connector1pin_00000103235372166611152680000014040895652109815727_" x="82.5" y="29.1" class="st13" width="1.4" height="1.4"/>
			
				<line id="connector0leg_00000173858564162323905250000011026355465634910099_" class="st14" x1="29.1" y1="31.2" x2="29.9" y2="31.2"/>
			
				<line id="connector1leg_00000072967104511000137360000004456605969780131484_" class="st14" x1="86.6" y1="31.2" x2="85.8" y2="31.2"/>
			<path class="st15" d="M29.1,31.2h56.6"/>
			<path id="body_00000013881052759764936630000016040980465462143631_" class="st16" d="M47.5,24.9c-0.7-0.3-2-0.6-2.7-0.6h-4
				c-0.8,0-1.4,0.6-1.4,1.4v10.7c0,0.8,0.6,1.4,1.4,1.4l4,0c0.8,0,2-0.3,2.7-0.6l0.1-0.1c0.7-0.3,2-0.6,2.7-0.6h14.4
				c0.8,0,2,0.3,2.7,0.6l0.1,0.1c0.7,0.3,2,0.6,2.8,0.6h4c0.8,0,1.4-0.6,1.4-1.4l0-10.7c0-0.8-0.6-1.4-1.4-1.4h-4
				c-0.8,0-2,0.3-2.8,0.6L67.5,25c-0.7,0.3-2,0.6-2.7,0.6H50.4c-0.8,0-2-0.3-2.7-0.6L47.5,24.9z"/>
			
				<rect id="gold_band_00000039132481141048168810000007377404767049847485_" x="71" y="24.3" class="st17" width="1.4" height="13.6"/>
			<rect id="band_3_00000036251015886992660450000005340395335505410954_" x="56.5" y="25.5" width="3.7" height="11.1"/>
			<rect id="band_2_nd_00000026849166388114795280000007751208277286800823_" x="50.5" y="25.5" width="3.7" height="11.1"/>
			<path id="band_rd_multiplier_00000034799905944131400120000010714292209435607696_" class="st17" d="M62.2,25.5c0,0,2.4,0,2.8,0
				s0.9-0.1,0.9-0.1v11.3c0,0-0.4-0.1-0.9-0.1c-0.5,0-2.8,0-2.8,0V25.5z"/>
			<path id="band_1_st_00000084526624391935047400000001787255037589019064_" class="st17" d="M48.3,25.2c-0.2-0.1-0.4-0.1-0.6-0.2
				l-0.1-0.1c-0.7-0.3-2-0.6-2.7-0.6h-0.2v13.6h0.2c0.8,0,2-0.3,2.7-0.6l0.1-0.1c0.2-0.1,0.4-0.2,0.6-0.2L48.3,25.2L48.3,25.2z"/>
			<path id="Shadow_00000173141460301957316700000010842652642149745552_" class="st18" d="M74.4,32.1L74.4,32.1
				c0,0.8-0.3,1.4-0.6,1.4H70c-0.8,0-2-0.1-2.7-0.2l-0.1,0c-0.7-0.1-1.9-0.2-2.7-0.2H50.6c-0.8,0-2,0.1-2.7,0.2l-0.1,0
				c-0.7,0.1-1.9,0.2-2.7,0.2l-0.6,0h-2h-0.6c-0.8,0-1.4,0.6-1.4,1.3v0.5v0.3v0.3c0,0.7,0.6,1.3,1.4,1.3h3.2c0.8,0,2-0.2,2.7-0.5
				l0.1-0.1c0.7-0.3,1.9-0.5,2.7-0.5h13.9c0.8,0,2,0.2,2.7,0.5l0.1,0.1c0.7,0.3,1.9,0.5,2.7,0.5h4.4c0.8,0,1.4-0.6,1.4-1.3l0-1.1
				v-1.9v-3.7C75.3,29.4,74.4,30,74.4,32.1z"/>
			<rect id="ShadowExtra_00000062164146413200718680000000515971032202615729_" x="71" y="30.9" width="1.4" height="6.3"/>
			<path id="ReflexRight_00000164472044917829489120000001571607280213991830_" class="st19" d="M66.5,26.1c0.5,0,1-0.2,1.3-0.3
				c0.4-0.2,1.2-0.3,1.9-0.3h2.9c0.4,0,0.4,0.5,0.4,0.7s0,0.8-0.4,0.8h-6.1c-0.2,0-0.5-0.2-0.5-0.4C66.1,26.3,66.3,26.1,66.5,26.1z"
				/>
			<circle id="ReflexLeft_00000071548916951114551300000007221836768195675322_" class="st19" cx="41" cy="26.2" r="0.9"/>
			
				<rect id="Reflex_gold_00000053512397996133959190000008734938997973046202_" x="71" y="24.7" class="st20" width="1.4" height="3.2"/>
			
				<rect id="Reflex_extra_00000064335634908704687050000000396927563971914670_" x="71" y="25.5" class="st19" width="1.4" height="1.5"/>
		</g>
	</g>
</g>
<path class="st12" d="M375.2,304.9h-0.8"/>
<g>
	<g transform="translate(354.945,273.761)">
		<g id="breadboard_00000129167359638536598720000002988612844761150112_">
			
				<rect id="connector0pin_00000180346347582211461330000000774012727131056571_" x="29.1" y="29.1" class="st13" width="1.4" height="1.4"/>
			
				<rect id="connector1pin_00000107587834292578417390000006631053753443810230_" x="82.5" y="29.1" class="st13" width="1.4" height="1.4"/>
			
				<line id="connector0leg_00000163756584939330198030000010791767597484829572_" class="st14" x1="29.1" y1="31.2" x2="29.9" y2="31.2"/>
			
				<line id="connector1leg_00000139977541485616615640000004590775795441198238_" class="st14" x1="86.6" y1="31.2" x2="85.8" y2="31.2"/>
			<path class="st15" d="M29.1,31.2h56.6"/>
			<path id="body_00000102523898422308471640000009925660819609806761_" class="st16" d="M47.5,24.9c-0.7-0.3-2-0.6-2.7-0.6h-4
				c-0.8,0-1.4,0.6-1.4,1.4v10.7c0,0.8,0.6,1.4,1.4,1.4l4,0c0.8,0,2-0.3,2.7-0.6l0.1-0.1c0.7-0.3,2-0.6,2.7-0.6h14.4
				c0.8,0,2,0.3,2.7,0.6l0.1,0.1c0.7,0.3,2,0.6,2.8,0.6h4c0.8,0,1.4-0.6,1.4-1.4l0-10.7c0-0.8-0.6-1.4-1.4-1.4h-4
				c-0.8,0-2,0.3-2.8,0.6L67.5,25c-0.7,0.3-2,0.6-2.7,0.6H50.4c-0.8,0-2-0.3-2.7-0.6L47.5,24.9z"/>
			
				<rect id="gold_band_00000007390203566903672680000009387351969224447387_" x="71" y="24.3" class="st17" width="1.4" height="13.6"/>
			<rect id="band_3_00000062159619159027434380000008412731241526507440_" x="56.5" y="25.5" width="3.7" height="11.1"/>
			<rect id="band_2_nd_00000011730086012721264230000001938249058867001018_" x="50.5" y="25.5" width="3.7" height="11.1"/>
			<path id="band_rd_multiplier_00000062163177605965380330000003975088128575348608_" class="st17" d="M62.2,25.5c0,0,2.4,0,2.8,0
				s0.9-0.1,0.9-0.1v11.3c0,0-0.4-0.1-0.9-0.1c-0.5,0-2.8,0-2.8,0V25.5z"/>
			<path id="band_1_st_00000049217291220816991940000014383292265562245014_" class="st17" d="M48.3,25.2c-0.2-0.1-0.4-0.1-0.6-0.2
				l-0.1-0.1c-0.7-0.3-2-0.6-2.7-0.6h-0.2v13.6h0.2c0.8,0,2-0.3,2.7-0.6l0.1-0.1c0.2-0.1,0.4-0.2,0.6-0.2L48.3,25.2L48.3,25.2z"/>
			<path id="Shadow_00000183235330649200874510000015820083207699172992_" class="st18" d="M74.4,32.1L74.4,32.1
				c0,0.8-0.3,1.4-0.6,1.4H70c-0.8,0-2-0.1-2.7-0.2l-0.1,0c-0.7-0.1-1.9-0.2-2.7-0.2H50.6c-0.8,0-2,0.1-2.7,0.2l-0.1,0
				c-0.7,0.1-1.9,0.2-2.7,0.2l-0.6,0h-2h-0.6c-0.8,0-1.4,0.6-1.4,1.3v0.5v0.3v0.3c0,0.7,0.6,1.3,1.4,1.3h3.2c0.8,0,2-0.2,2.7-0.5
				l0.1-0.1c0.7-0.3,1.9-0.5,2.7-0.5h13.9c0.8,0,2,0.2,2.7,0.5l0.1,0.1c0.7,0.3,1.9,0.5,2.7,0.5h4.4c0.8,0,1.4-0.6,1.4-1.3l0-1.1
				v-1.9v-3.7C75.3,29.4,74.4,30,74.4,32.1z"/>
			<rect id="ShadowExtra_00000127744061758723004780000010726522957413271690_" x="71" y="30.9" width="1.4" height="6.3"/>
			<path id="ReflexRight_00000111165293990768301640000011913328510143815317_" class="st19" d="M66.5,26.1c0.5,0,1-0.2,1.3-0.3
				c0.4-0.2,1.2-0.3,1.9-0.3h2.9c0.4,0,0.4,0.5,0.4,0.7s0,0.8-0.4,0.8h-6.1c-0.2,0-0.5-0.2-0.5-0.4C66.1,26.3,66.3,26.1,66.5,26.1z"
				/>
			<circle id="ReflexLeft_00000116943393569552272580000012048842253131720854_" class="st19" cx="41" cy="26.2" r="0.9"/>
			
				<rect id="Reflex_gold_00000168110819029740698450000000459002700418056127_" x="71" y="24.7" class="st20" width="1.4" height="3.2"/>
			
				<rect id="Reflex_extra_00000134966280963776969700000014271092510961674144_" x="71" y="25.5" class="st19" width="1.4" height="1.5"/>
		</g>
	</g>
</g>
<g id="icon_00000172439195085034442510000012645732397197430708_">
	<path class="st21" d="M305.2,24v19.4c1.2,0,2.2,1,2.2,2.2c0,1.2-1,2.2-2.2,2.2v19.4h36V24H305.2z"/>
	<g transform="matrix(1, 0, 0, 1, 7.2, 10.8)">
		<g>
			<rect x="305.2" y="24" class="st2" width="21.6" height="21.6"/>
		</g>
	</g>
</g>
<g id="icon_00000163068032908226259460000003808400366023929226_">
	<path class="st21" d="M348.4,24v19.4c1.2,0,2.2,1,2.2,2.2c0,1.2-1,2.2-2.2,2.2v19.4h36V24H348.4z"/>
	<g transform="matrix(1, 0, 0, 1, 7.2, 10.8)">
		<g>
			<rect x="348.4" y="24" class="st2" width="21.6" height="21.6"/>
		</g>
	</g>
</g>
<path class="st21" d="M391.6,24v19.4c1.2,0,2.2,1,2.2,2.2c0,1.2-1,2.2-2.2,2.2v19.4h36V24H391.6z"/>
<g id="icon_00000183245491073082461390000014035619931651259830_">
	<path class="st21" d="M434.8,24v19.4c1.2,0,2.2,1,2.2,2.2c0,1.2-1,2.2-2.2,2.2v19.4h36V24H434.8z"/>
	<g transform="matrix(1, 0, 0, 1, 7.2, 10.8)">
		<g>
			<rect x="434.8" y="24" class="st2" width="21.6" height="21.6"/>
		</g>
	</g>
</g>
<g id="icon_00000042730421267951837190000016211501026967920257_">
	<path d="M478,24v19.4c1.2,0,2.2,1,2.2,2.2c0,1.2-1,2.2-2.2,2.2v19.4h36V24H478z"/>
	<g transform="matrix(1, 0, 0, 1, 7.2, 10.8)">
		<g>
			<rect x="478" y="24" class="st2" width="21.6" height="21.6"/>
		</g>
	</g>
</g>
<g transform="matrix(1, 0, 0, 1, 16.8505, 38.4516)">
	<g>
		
			<rect id="connector0pin_00000103965936319090139150000016946585401560928145_" x="478" y="24" class="st3" width="2.3" height="2.3"/>
		<rect x="478.5" y="24.6" class="st4" width="1.2" height="1.2"/>
		<polygon class="st5" points="478,26.3 478.5,25.8 478.5,24.5 478,24 		"/>
		<polygon class="st6" points="479.7,24.6 478.6,24.6 478,24 480.3,24 		"/>
		<polygon class="st7" points="479.7,25.8 479.7,24.6 480.3,24 480.3,26.3 		"/>
		<polygon class="st8" points="478,26.3 478.5,25.8 479.7,25.8 480.3,26.3 		"/>
	</g>
</g>
<g transform="matrix(1, 0, 0, 1, 16.8505, 38.4516)">
	<g>
		
			<rect id="connector0pin_00000111174816398535414500000007849855640864026764_" x="434.8" y="24" class="st3" width="2.3" height="2.3"/>
		<rect x="435.3" y="24.6" class="st4" width="1.2" height="1.2"/>
		<polygon class="st5" points="434.8,26.3 435.3,25.8 435.3,24.5 434.8,24 		"/>
		<polygon class="st6" points="436.5,24.6 435.4,24.6 434.8,24 437.1,24 		"/>
		<polygon class="st7" points="436.5,25.8 436.5,24.6 437.1,24 437.1,26.3 		"/>
		<polygon class="st8" points="434.8,26.3 435.3,25.8 436.5,25.8 437.1,26.3 		"/>
	</g>
</g>
<g transform="matrix(1, 0, 0, 1, 7.2, 10.8)">
	<g>
		<rect x="391.6" y="24" class="st2" width="21.6" height="21.6"/>
	</g>
</g>
<g transform="matrix(1, 0, 0, 1, 16.8505, 38.4516)">
	<g>
		
			<rect id="connector0pin_00000110448512115140010410000017131297010308639886_" x="391.6" y="24" class="st3" width="2.3" height="2.3"/>
		<rect x="392.1" y="24.6" class="st4" width="1.2" height="1.2"/>
		<polygon class="st5" points="391.6,26.3 392.1,25.8 392.1,24.5 391.6,24 		"/>
		<polygon class="st6" points="393.3,24.6 392.2,24.6 391.6,24 393.9,24 		"/>
		<polygon class="st7" points="393.3,25.8 393.3,24.6 393.9,24 393.9,26.3 		"/>
		<polygon class="st8" points="391.6,26.3 392.1,25.8 393.3,25.8 393.9,26.3 		"/>
	</g>
</g>
<g transform="matrix(1, 0, 0, 1, 16.8505, 38.4516)">
	<g>
		
			<rect id="connector0pin_00000036946914452591868680000004500699985274526599_" x="348.4" y="24" class="st3" width="2.3" height="2.3"/>
		<rect x="348.9" y="24.6" class="st4" width="1.2" height="1.2"/>
		<polygon class="st5" points="348.4,26.3 348.9,25.8 348.9,24.5 348.4,24 		"/>
		<polygon class="st6" points="350.1,24.6 349,24.6 348.4,24 350.7,24 		"/>
		<polygon class="st7" points="350.1,25.8 350.1,24.6 350.7,24 350.7,26.3 		"/>
		<polygon class="st8" points="348.4,26.3 348.9,25.8 350.1,25.8 350.7,26.3 		"/>
	</g>
</g>
<g transform="matrix(1, 0, 0, 1, 16.8505, 38.4516)">
	<g>
		
			<rect id="connector0pin_00000148652550168963376920000018437858787861752738_" x="305.2" y="24" class="st3" width="2.3" height="2.3"/>
		<rect x="305.7" y="24.6" class="st4" width="1.2" height="1.2"/>
		<polygon class="st5" points="305.2,26.3 305.7,25.8 305.7,24.5 305.2,24 		"/>
		<polygon class="st6" points="306.9,24.6 305.8,24.6 305.2,24 307.5,24 		"/>
		<polygon class="st7" points="306.9,25.8 306.9,24.6 307.5,24 307.5,26.3 		"/>
		<polygon class="st8" points="305.2,26.3 305.7,25.8 306.9,25.8 307.5,26.3 		"/>
	</g>
</g>
<g>
	<g transform="translate(354.945,374.561)">
		<g id="breadboard_00000094576414742469948590000002842316708373903768_">
			
				<rect id="connector0pin_00000084497293643197505170000018317095629196746158_" x="-91.4" y="29.1" class="st13" width="1.4" height="1.4"/>
			
				<rect id="connector1pin_00000102521392882308294060000010575105439657997486_" x="-38" y="29.1" class="st13" width="1.4" height="1.4"/>
			
				<line id="connector0leg_00000069371217574292666260000008216989246492976299_" class="st14" x1="-91.4" y1="31.2" x2="-90.6" y2="31.2"/>
			
				<line id="connector1leg_00000016057040790375285620000001917425520702793628_" class="st14" x1="-33.9" y1="31.2" x2="-34.7" y2="31.2"/>
			<path class="st15" d="M-91.4,31.2h56.6"/>
			<path id="body_00000090983963304867323430000016289242941878635683_" class="st16" d="M-73,24.9c-0.7-0.3-2-0.6-2.7-0.6h-4
				c-0.8,0-1.4,0.6-1.4,1.4v10.7c0,0.8,0.6,1.4,1.4,1.4l4,0c0.8,0,2-0.3,2.7-0.6l0.1-0.1c0.7-0.3,2-0.6,2.7-0.6h14.4
				c0.8,0,2,0.3,2.7,0.6l0.1,0.1c0.7,0.3,2,0.6,2.8,0.6h4c0.8,0,1.4-0.6,1.4-1.4l0-10.7c0-0.8-0.6-1.4-1.4-1.4h-4
				c-0.8,0-2,0.3-2.8,0.6L-53,25c-0.7,0.3-2,0.6-2.7,0.6h-14.4c-0.8,0-2-0.3-2.7-0.6L-73,24.9z"/>
			
				<rect id="gold_band_00000119076142941032886570000005092652365264406428_" x="-49.5" y="24.3" class="st17" width="1.4" height="13.6"/>
			<rect id="band_3_00000124150255969165855410000005760092506588345265_" x="-64.1" y="25.5" width="3.7" height="11.1"/>
			<rect id="band_2_nd_00000058557097537275951430000007720248865510288539_" x="-70" y="25.5" width="3.7" height="11.1"/>
			<path id="band_rd_multiplier_00000168083143362235084660000011486346058302713242_" class="st17" d="M-58.3,25.5c0,0,2.4,0,2.8,0
				s0.9-0.1,0.9-0.1v11.3c0,0-0.4-0.1-0.9-0.1s-2.8,0-2.8,0V25.5z"/>
			<path id="band_1_st_00000121245016766999442630000011484007964174764423_" class="st17" d="M-72.3,25.2c-0.2-0.1-0.4-0.1-0.6-0.2
				l-0.1-0.1c-0.7-0.3-2-0.6-2.7-0.6h-0.2v13.6h0.2c0.8,0,2-0.3,2.7-0.6l0.1-0.1c0.2-0.1,0.4-0.2,0.6-0.2L-72.3,25.2L-72.3,25.2z"/>
			<path id="Shadow_00000047738888269735251050000003134036888013478570_" class="st18" d="M-46.1,32.1L-46.1,32.1
				c0,0.8-0.3,1.4-0.6,1.4h-3.8c-0.8,0-2-0.1-2.7-0.2l-0.1,0c-0.7-0.1-1.9-0.2-2.7-0.2h-13.9c-0.8,0-2,0.1-2.7,0.2l-0.1,0
				c-0.7,0.1-1.9,0.2-2.7,0.2l-0.6,0h-2h-0.6c-0.8,0-1.4,0.6-1.4,1.3v0.5v0.3v0.3c0,0.7,0.6,1.3,1.4,1.3h3.2c0.8,0,2-0.2,2.7-0.5
				l0.1-0.1c0.7-0.3,1.9-0.5,2.7-0.5H-56c0.8,0,2,0.2,2.7,0.5l0.1,0.1c0.7,0.3,1.9,0.5,2.7,0.5h4.4c0.8,0,1.4-0.6,1.4-1.3l0-1.1
				v-1.9v-3.7C-45.2,29.4-46.1,30-46.1,32.1z"/>
			<rect id="ShadowExtra_00000143575185099998264530000006155827758104238239_" x="-49.5" y="30.9" width="1.4" height="6.3"/>
			<path id="ReflexRight_00000145040809013038927090000004180714489139855003_" class="st19" d="M-54,26.1c0.5,0,1-0.2,1.3-0.3
				c0.4-0.2,1.2-0.3,1.9-0.3h2.9c0.4,0,0.4,0.5,0.4,0.7c0,0.3,0,0.8-0.4,0.8H-54c-0.2,0-0.5-0.2-0.5-0.4
				C-54.4,26.3-54.3,26.1-54,26.1z"/>
			<circle id="ReflexLeft_00000118367280860706786920000008336354280909450171_" class="st19" cx="-79.5" cy="26.2" r="0.9"/>
			
				<rect id="Reflex_gold_00000159471030291744025690000004280118333717935271_" x="-49.5" y="24.7" class="st20" width="1.4" height="3.2"/>
			
				<rect id="Reflex_extra_00000022535190493138504820000013093036717356263567_" x="-49.5" y="25.5" class="st19" width="1.4" height="1.5"/>
		</g>
	</g>
</g>
<g>
	<g transform="translate(354.945,324.161)">
		<g id="breadboard_00000100353784277013404660000008204529332113225903_">
			
				<rect id="connector0pin_00000013883184465588660970000018320118906034346156_" x="-91.4" y="29.1" class="st13" width="1.4" height="1.4"/>
			
				<rect id="connector1pin_00000029745430569612332160000002739777536971301250_" x="-38" y="29.1" class="st13" width="1.4" height="1.4"/>
			
				<line id="connector0leg_00000013175116538625659510000003950714630292920207_" class="st14" x1="-91.4" y1="31.2" x2="-90.6" y2="31.2"/>
			
				<line id="connector1leg_00000010273015994294000560000016880212706444070559_" class="st14" x1="-33.9" y1="31.2" x2="-34.7" y2="31.2"/>
			<path class="st15" d="M-91.4,31.2h56.6"/>
			<path id="body_00000124156187687369953200000009937572273775027591_" class="st16" d="M-73,24.9c-0.7-0.3-2-0.6-2.7-0.6h-4
				c-0.8,0-1.4,0.6-1.4,1.4v10.7c0,0.8,0.6,1.4,1.4,1.4l4,0c0.8,0,2-0.3,2.7-0.6l0.1-0.1c0.7-0.3,2-0.6,2.7-0.6h14.4
				c0.8,0,2,0.3,2.7,0.6l0.1,0.1c0.7,0.3,2,0.6,2.8,0.6h4c0.8,0,1.4-0.6,1.4-1.4l0-10.7c0-0.8-0.6-1.4-1.4-1.4h-4
				c-0.8,0-2,0.3-2.8,0.6L-53,25c-0.7,0.3-2,0.6-2.7,0.6h-14.4c-0.8,0-2-0.3-2.7-0.6L-73,24.9z"/>
			
				<rect id="gold_band_00000170260302497126318710000017088455069785281939_" x="-49.5" y="24.3" class="st17" width="1.4" height="13.6"/>
			<rect id="band_3_00000085246850862219846390000006203062509507590570_" x="-64.1" y="25.5" width="3.7" height="11.1"/>
			<rect id="band_2_nd_00000178889868551734008500000001283063385615349903_" x="-70" y="25.5" width="3.7" height="11.1"/>
			<path id="band_rd_multiplier_00000078743002412585851390000003114473661936297900_" class="st17" d="M-58.3,25.5c0,0,2.4,0,2.8,0
				s0.9-0.1,0.9-0.1v11.3c0,0-0.4-0.1-0.9-0.1s-2.8,0-2.8,0V25.5z"/>
			<path id="band_1_st_00000139279200657232100990000002634831756565987968_" class="st17" d="M-72.3,25.2c-0.2-0.1-0.4-0.1-0.6-0.2
				l-0.1-0.1c-0.7-0.3-2-0.6-2.7-0.6h-0.2v13.6h0.2c0.8,0,2-0.3,2.7-0.6l0.1-0.1c0.2-0.1,0.4-0.2,0.6-0.2L-72.3,25.2L-72.3,25.2z"/>
			<path id="Shadow_00000008866879581136852110000001390333118484515224_" class="st18" d="M-46.1,32.1L-46.1,32.1
				c0,0.8-0.3,1.4-0.6,1.4h-3.8c-0.8,0-2-0.1-2.7-0.2l-0.1,0c-0.7-0.1-1.9-0.2-2.7-0.2h-13.9c-0.8,0-2,0.1-2.7,0.2l-0.1,0
				c-0.7,0.1-1.9,0.2-2.7,0.2l-0.6,0h-2h-0.6c-0.8,0-1.4,0.6-1.4,1.3v0.5v0.3v0.3c0,0.7,0.6,1.3,1.4,1.3h3.2c0.8,0,2-0.2,2.7-0.5
				l0.1-0.1c0.7-0.3,1.9-0.5,2.7-0.5H-56c0.8,0,2,0.2,2.7,0.5l0.1,0.1c0.7,0.3,1.9,0.5,2.7,0.5h4.4c0.8,0,1.4-0.6,1.4-1.3l0-1.1
				v-1.9v-3.7C-45.2,29.4-46.1,30-46.1,32.1z"/>
			<rect id="ShadowExtra_00000151544776170164139250000003074496568826145977_" x="-49.5" y="30.9" width="1.4" height="6.3"/>
			<path id="ReflexRight_00000026162288339262761190000010463995032711907493_" class="st19" d="M-54,26.1c0.5,0,1-0.2,1.3-0.3
				c0.4-0.2,1.2-0.3,1.9-0.3h2.9c0.4,0,0.4,0.5,0.4,0.7c0,0.3,0,0.8-0.4,0.8H-54c-0.2,0-0.5-0.2-0.5-0.4
				C-54.4,26.3-54.3,26.1-54,26.1z"/>
			<circle id="ReflexLeft_00000009564398924006207030000010450087639460247171_" class="st19" cx="-79.5" cy="26.2" r="0.9"/>
			
				<rect id="Reflex_gold_00000151524099425717625830000010713683891443013777_" x="-49.5" y="24.7" class="st20" width="1.4" height="3.2"/>
			
				<rect id="Reflex_extra_00000165937335856285881420000011886582164144794793_" x="-49.5" y="25.5" class="st19" width="1.4" height="1.5"/>
		</g>
	</g>
</g>
<g>
	<g transform="translate(354.945,223.361)">
		<g id="breadboard_00000139285219212864386880000009221258764659331461_">
			
				<rect id="connector0pin_00000155148422498730395540000009935069342013896836_" x="-91.4" y="29.1" class="st13" width="1.4" height="1.4"/>
			
				<rect id="connector1pin_00000124148431940561936110000013209046460338926981_" x="-38" y="29.1" class="st13" width="1.4" height="1.4"/>
			
				<line id="connector0leg_00000029013602995159596790000000584461394514093190_" class="st14" x1="-91.4" y1="31.2" x2="-90.6" y2="31.2"/>
			
				<line id="connector1leg_00000075869082189529817750000013359839482310064526_" class="st14" x1="-33.9" y1="31.2" x2="-34.7" y2="31.2"/>
			<path class="st15" d="M-91.4,31.2h56.6"/>
			<path id="body_00000183968303640763090070000017880742035647800470_" class="st16" d="M-73,24.9c-0.7-0.3-2-0.6-2.7-0.6h-4
				c-0.8,0-1.4,0.6-1.4,1.4v10.7c0,0.8,0.6,1.4,1.4,1.4l4,0c0.8,0,2-0.3,2.7-0.6l0.1-0.1c0.7-0.3,2-0.6,2.7-0.6h14.4
				c0.8,0,2,0.3,2.7,0.6l0.1,0.1c0.7,0.3,2,0.6,2.8,0.6h4c0.8,0,1.4-0.6,1.4-1.4l0-10.7c0-0.8-0.6-1.4-1.4-1.4h-4
				c-0.8,0-2,0.3-2.8,0.6L-53,25c-0.7,0.3-2,0.6-2.7,0.6h-14.4c-0.8,0-2-0.3-2.7-0.6L-73,24.9z"/>
			
				<rect id="gold_band_00000161601146969683023660000001688902789581291177_" x="-49.5" y="24.3" class="st17" width="1.4" height="13.6"/>
			<rect id="band_3_00000082351397403594972360000007081398620824174265_" x="-64.1" y="25.5" width="3.7" height="11.1"/>
			<rect id="band_2_nd_00000142167475567230703150000008972105725300880543_" x="-70" y="25.5" width="3.7" height="11.1"/>
			<path id="band_rd_multiplier_00000140010033867557118560000000509819644988914566_" class="st17" d="M-58.3,25.5c0,0,2.4,0,2.8,0
				s0.9-0.1,0.9-0.1v11.3c0,0-0.4-0.1-0.9-0.1s-2.8,0-2.8,0V25.5z"/>
			<path id="band_1_st_00000023245220867663890150000015816825667291223477_" class="st17" d="M-72.3,25.2c-0.2-0.1-0.4-0.1-0.6-0.2
				l-0.1-0.1c-0.7-0.3-2-0.6-2.7-0.6h-0.2v13.6h0.2c0.8,0,2-0.3,2.7-0.6l0.1-0.1c0.2-0.1,0.4-0.2,0.6-0.2L-72.3,25.2L-72.3,25.2z"/>
			<path id="Shadow_00000033369694383574407440000009238083251488261799_" class="st18" d="M-46.1,32.1L-46.1,32.1
				c0,0.8-0.3,1.4-0.6,1.4h-3.8c-0.8,0-2-0.1-2.7-0.2l-0.1,0c-0.7-0.1-1.9-0.2-2.7-0.2h-13.9c-0.8,0-2,0.1-2.7,0.2l-0.1,0
				c-0.7,0.1-1.9,0.2-2.7,0.2l-0.6,0h-2h-0.6c-0.8,0-1.4,0.6-1.4,1.3v0.5v0.3v0.3c0,0.7,0.6,1.3,1.4,1.3h3.2c0.8,0,2-0.2,2.7-0.5
				l0.1-0.1c0.7-0.3,1.9-0.5,2.7-0.5H-56c0.8,0,2,0.2,2.7,0.5l0.1,0.1c0.7,0.3,1.9,0.5,2.7,0.5h4.4c0.8,0,1.4-0.6,1.4-1.3l0-1.1
				v-1.9v-3.7C-45.2,29.4-46.1,30-46.1,32.1z"/>
			<rect id="ShadowExtra_00000042707043597523112560000004865409300672855732_" x="-49.5" y="30.9" width="1.4" height="6.3"/>
			<path id="ReflexRight_00000075120969242559277970000001505655516197267856_" class="st19" d="M-54,26.1c0.5,0,1-0.2,1.3-0.3
				c0.4-0.2,1.2-0.3,1.9-0.3h2.9c0.4,0,0.4,0.5,0.4,0.7s0,0.8-0.4,0.8H-54c-0.2,0-0.5-0.2-0.5-0.4C-54.4,26.3-54.3,26.1-54,26.1z"/>
			<circle id="ReflexLeft_00000128442878386789467710000000482526243308766381_" class="st19" cx="-79.5" cy="26.2" r="0.9"/>
			
				<rect id="Reflex_gold_00000174566389010640496200000009746619072688954496_" x="-49.5" y="24.7" class="st20" width="1.4" height="3.2"/>
			
				<rect id="Reflex_extra_00000018931934731374616280000001896174105609576123_" x="-49.5" y="25.5" class="st19" width="1.4" height="1.5"/>
		</g>
	</g>
</g>
<g>
	<g transform="translate(354.945,273.761)">
		<g id="breadboard_00000048494179948063653070000007871121600397014441_">
			
				<rect id="connector0pin_00000163766768932761036240000011527825930602837393_" x="-91.4" y="29.1" class="st13" width="1.4" height="1.4"/>
			
				<rect id="connector1pin_00000145049580146187956690000013635674841764573329_" x="-38" y="29.1" class="st13" width="1.4" height="1.4"/>
			
				<line id="connector0leg_00000034769199148649030280000014378401441851445126_" class="st14" x1="-91.4" y1="31.2" x2="-90.6" y2="31.2"/>
			
				<line id="connector1leg_00000129912759956128702240000005009925982040968352_" class="st14" x1="-33.9" y1="31.2" x2="-34.7" y2="31.2"/>
			<path class="st15" d="M-91.4,31.2h56.6"/>
			<path id="body_00000178176964741672869940000008343656416434643367_" class="st16" d="M-73,24.9c-0.7-0.3-2-0.6-2.7-0.6h-4
				c-0.8,0-1.4,0.6-1.4,1.4v10.7c0,0.8,0.6,1.4,1.4,1.4l4,0c0.8,0,2-0.3,2.7-0.6l0.1-0.1c0.7-0.3,2-0.6,2.7-0.6h14.4
				c0.8,0,2,0.3,2.7,0.6l0.1,0.1c0.7,0.3,2,0.6,2.8,0.6h4c0.8,0,1.4-0.6,1.4-1.4l0-10.7c0-0.8-0.6-1.4-1.4-1.4h-4
				c-0.8,0-2,0.3-2.8,0.6L-53,25c-0.7,0.3-2,0.6-2.7,0.6h-14.4c-0.8,0-2-0.3-2.7-0.6L-73,24.9z"/>
			
				<rect id="gold_band_00000127737009479441266790000003361196036615168956_" x="-49.5" y="24.3" class="st17" width="1.4" height="13.6"/>
			<rect id="band_3_00000094602530473912256480000000201966974650532509_" x="-64.1" y="25.5" width="3.7" height="11.1"/>
			<rect id="band_2_nd_00000080901271498094094630000013289666446347401856_" x="-70" y="25.5" width="3.7" height="11.1"/>
			<path id="band_rd_multiplier_00000063609273668710067080000009338620709561487038_" class="st17" d="M-58.3,25.5c0,0,2.4,0,2.8,0
				s0.9-0.1,0.9-0.1v11.3c0,0-0.4-0.1-0.9-0.1s-2.8,0-2.8,0V25.5z"/>
			<path id="band_1_st_00000160884732783251987550000016843183658075716512_" class="st17" d="M-72.3,25.2c-0.2-0.1-0.4-0.1-0.6-0.2
				l-0.1-0.1c-0.7-0.3-2-0.6-2.7-0.6h-0.2v13.6h0.2c0.8,0,2-0.3,2.7-0.6l0.1-0.1c0.2-0.1,0.4-0.2,0.6-0.2L-72.3,25.2L-72.3,25.2z"/>
			<path id="Shadow_00000156572156305654085320000007476168353384928440_" class="st18" d="M-46.1,32.1L-46.1,32.1
				c0,0.8-0.3,1.4-0.6,1.4h-3.8c-0.8,0-2-0.1-2.7-0.2l-0.1,0c-0.7-0.1-1.9-0.2-2.7-0.2h-13.9c-0.8,0-2,0.1-2.7,0.2l-0.1,0
				c-0.7,0.1-1.9,0.2-2.7,0.2l-0.6,0h-2h-0.6c-0.8,0-1.4,0.6-1.4,1.3v0.5v0.3v0.3c0,0.7,0.6,1.3,1.4,1.3h3.2c0.8,0,2-0.2,2.7-0.5
				l0.1-0.1c0.7-0.3,1.9-0.5,2.7-0.5H-56c0.8,0,2,0.2,2.7,0.5l0.1,0.1c0.7,0.3,1.9,0.5,2.7,0.5h4.4c0.8,0,1.4-0.6,1.4-1.3l0-1.1
				v-1.9v-3.7C-45.2,29.4-46.1,30-46.1,32.1z"/>
			<rect id="ShadowExtra_00000065050264675101285380000002082004764905101997_" x="-49.5" y="30.9" width="1.4" height="6.3"/>
			<path id="ReflexRight_00000013167258049583069420000009571121360884832693_" class="st19" d="M-54,26.1c0.5,0,1-0.2,1.3-0.3
				c0.4-0.2,1.2-0.3,1.9-0.3h2.9c0.4,0,0.4,0.5,0.4,0.7s0,0.8-0.4,0.8H-54c-0.2,0-0.5-0.2-0.5-0.4C-54.4,26.3-54.3,26.1-54,26.1z"/>
			<circle id="ReflexLeft_00000005954147547136993670000013394111283815716745_" class="st19" cx="-79.5" cy="26.2" r="0.9"/>
			
				<rect id="Reflex_gold_00000103264057336887052040000001869249315886150789_" x="-49.5" y="24.7" class="st20" width="1.4" height="3.2"/>
			
				<rect id="Reflex_extra_00000018203937273689737950000000192674563082671243_" x="-49.5" y="25.5" class="st19" width="1.4" height="1.5"/>
		</g>
	</g>
</g>
<g>
	<g id="breadboard_00000142873756467810538580000015364130372755599508_">
		<path class="st9" d="M335.2,384v19.4c1.2,0,2.2,1,2.2,2.2c0,1.2-1,2.2-2.2,2.2v19.4h36V384H335.2z"/>
		<g transform="matrix(1, 0, 0, 1, 7.2, 10.8)">
			<g>
				<rect x="335.2" y="384" class="st2" width="21.6" height="21.6"/>
			</g>
		</g>
		<g transform="matrix(1, 0, 0, 1, 16.8505, 38.4516)">
			<g>
				
					<rect id="connector0pin_00000154394463911749195650000001954777996472815023_" x="335.2" y="384" class="st9" width="2.3" height="2.3"/>
				<rect x="335.7" y="384.6" class="st9" width="1.2" height="1.2"/>
				<polygon class="st9" points="335.2,386.3 335.7,385.8 335.7,384.5 335.2,384 				"/>
				<polygon class="st9" points="336.9,384.6 335.7,384.6 335.2,384 337.5,384 				"/>
				<polygon class="st9" points="336.9,385.8 336.9,384.6 337.5,384 337.5,386.3 				"/>
				<polygon class="st9" points="335.2,386.3 335.7,385.8 336.9,385.8 337.5,386.3 				"/>
			</g>
		</g>
	</g>
</g>
<g id="breadboard_00000114782042503741852800000015861654086588005820_">
	<path class="st9" d="M335.2,333.6v19.4c1.2,0,2.2,1,2.2,2.2c0,1.2-1,2.2-2.2,2.2v19.4h36v-43.2H335.2z"/>
	<g transform="matrix(1, 0, 0, 1, 7.2, 10.8)">
		<g>
			<rect x="335.2" y="333.6" class="st2" width="21.6" height="21.6"/>
		</g>
	</g>
	<g transform="matrix(1, 0, 0, 1, 16.8505, 38.4516)">
		<g>
			
				<rect id="connector0pin_00000065076423693467215060000011658308200296593827_" x="335.2" y="333.6" class="st3" width="2.3" height="2.3"/>
			<rect x="335.7" y="334.2" class="st4" width="1.2" height="1.2"/>
			<polygon class="st5" points="335.2,335.9 335.7,335.4 335.7,334.1 335.2,333.6 			"/>
			<polygon class="st6" points="336.9,334.2 335.7,334.2 335.2,333.6 337.5,333.6 			"/>
			<polygon class="st7" points="336.9,335.4 336.9,334.2 337.5,333.6 337.5,335.9 			"/>
			<polygon class="st8" points="335.2,335.9 335.7,335.4 336.9,335.4 337.5,335.9 			"/>
		</g>
	</g>
</g>
<g id="icon_00000001638502271662776910000017858518471644871811_">
	<path class="st1" d="M455.9,232.6v19.4c1.2,0,2.2,1,2.2,2.2c0,1.2-1,2.2-2.2,2.2v19.4h36v-43.2H455.9z"/>
	<g transform="matrix(1, 0, 0, 1, 7.2, 10.8)">
		<g>
			<rect x="455.9" y="232.6" class="st2" width="21.6" height="21.6"/>
		</g>
	</g>
</g>
<g id="icon_00000024689305302317972680000016450559746384040089_">
	<path class="st1" d="M455.9,283.3v19.4c1.2,0,2.2,1,2.2,2.2c0,1.2-1,2.2-2.2,2.2v19.4h36v-43.2H455.9z"/>
	<g transform="matrix(1, 0, 0, 1, 7.2, 10.8)">
		<g>
			<rect x="455.9" y="283.3" class="st2" width="21.6" height="21.6"/>
		</g>
	</g>
</g>
<g id="icon_00000052062896221758797820000016357203395480379037_">
	<path class="st1" d="M455.9,334v19.4c1.2,0,2.2,1,2.2,2.2c0,1.2-1,2.2-2.2,2.2v19.4h36V334H455.9z"/>
	<g transform="matrix(1, 0, 0, 1, 7.2, 10.8)">
		<g>
			<rect x="455.9" y="334" class="st2" width="21.6" height="21.6"/>
		</g>
	</g>
</g>
<g id="icon_00000060750824475529408840000012417191225456539820_">
	<path class="st1" d="M455.9,384.7v19.4c1.2,0,2.2,1,2.2,2.2c0,1.2-1,2.2-2.2,2.2v19.4h36v-43.2H455.9z"/>
	<g transform="matrix(1, 0, 0, 1, 7.2, 10.8)">
		<g>
			<rect x="455.9" y="384.7" class="st2" width="21.6" height="21.6"/>
		</g>
	</g>
</g>
</svg>
